<mxfile host="65bd71144e">
    <diagram name="Page-1" id="jvLMgW2qh89p9YElOxy1">
        <mxGraphModel dx="674" dy="597" grid="1" gridSize="10" guides="1" tooltips="1" connect="1" arrows="1" fold="1" page="1" pageScale="1" pageWidth="827" pageHeight="1169" math="0" shadow="0">
            <root>
                <mxCell id="0"/>
                <mxCell id="1" parent="0"/>
                <mxCell id="wWix9RE-jAxu2qYLu9UM-1" value="&lt;font color=&quot;#fafafa&quot;&gt;doctors&lt;/font&gt;" style="shape=table;startSize=30;container=1;collapsible=1;childLayout=tableLayout;fixedRows=1;rowLines=0;fontStyle=1;align=center;resizeLast=1;html=1;fillColor=#202125;" parent="1" vertex="1">
                    <mxGeometry x="870" y="40" width="330" height="150" as="geometry"/>
                </mxCell>
                <mxCell id="wWix9RE-jAxu2qYLu9UM-2" value="" style="shape=tableRow;horizontal=0;startSize=0;swimlaneHead=0;swimlaneBody=0;fillColor=none;collapsible=0;dropTarget=0;points=[[0,0.5],[1,0.5]];portConstraint=eastwest;top=0;left=0;right=0;bottom=1;" parent="wWix9RE-jAxu2qYLu9UM-1" vertex="1">
                    <mxGeometry y="30" width="330" height="30" as="geometry"/>
                </mxCell>
                <mxCell id="wWix9RE-jAxu2qYLu9UM-3" value="PK" style="shape=partialRectangle;connectable=0;fillColor=#000000;top=0;left=0;bottom=0;right=0;fontStyle=1;overflow=hidden;whiteSpace=wrap;html=1;" parent="wWix9RE-jAxu2qYLu9UM-2" vertex="1">
                    <mxGeometry width="30" height="30" as="geometry">
                        <mxRectangle width="30" height="30" as="alternateBounds"/>
                    </mxGeometry>
                </mxCell>
                <mxCell id="wWix9RE-jAxu2qYLu9UM-4" value="id INT AUTO_INCREMENT NOT NULL" style="shape=partialRectangle;connectable=0;fillColor=#000000;top=0;left=0;bottom=0;right=0;align=left;spacingLeft=6;fontStyle=5;overflow=hidden;whiteSpace=wrap;html=1;" parent="wWix9RE-jAxu2qYLu9UM-2" vertex="1">
                    <mxGeometry x="30" width="300" height="30" as="geometry">
                        <mxRectangle width="300" height="30" as="alternateBounds"/>
                    </mxGeometry>
                </mxCell>
                <mxCell id="wWix9RE-jAxu2qYLu9UM-5" value="" style="shape=tableRow;horizontal=0;startSize=0;swimlaneHead=0;swimlaneBody=0;fillColor=none;collapsible=0;dropTarget=0;points=[[0,0.5],[1,0.5]];portConstraint=eastwest;top=0;left=0;right=0;bottom=0;" parent="wWix9RE-jAxu2qYLu9UM-1" vertex="1">
                    <mxGeometry y="60" width="330" height="30" as="geometry"/>
                </mxCell>
                <mxCell id="wWix9RE-jAxu2qYLu9UM-6" value="" style="shape=partialRectangle;connectable=0;fillColor=#000000;top=0;left=0;bottom=0;right=0;editable=1;overflow=hidden;whiteSpace=wrap;html=1;" parent="wWix9RE-jAxu2qYLu9UM-5" vertex="1">
                    <mxGeometry width="30" height="30" as="geometry">
                        <mxRectangle width="30" height="30" as="alternateBounds"/>
                    </mxGeometry>
                </mxCell>
                <mxCell id="wWix9RE-jAxu2qYLu9UM-7" value="doctor_name VARCHAR(110)&amp;nbsp;NOT NULL" style="shape=partialRectangle;connectable=0;fillColor=#000000;top=0;left=0;bottom=0;right=0;align=left;spacingLeft=6;overflow=hidden;whiteSpace=wrap;html=1;" parent="wWix9RE-jAxu2qYLu9UM-5" vertex="1">
                    <mxGeometry x="30" width="300" height="30" as="geometry">
                        <mxRectangle width="300" height="30" as="alternateBounds"/>
                    </mxGeometry>
                </mxCell>
                <mxCell id="wWix9RE-jAxu2qYLu9UM-8" value="" style="shape=tableRow;horizontal=0;startSize=0;swimlaneHead=0;swimlaneBody=0;fillColor=none;collapsible=0;dropTarget=0;points=[[0,0.5],[1,0.5]];portConstraint=eastwest;top=0;left=0;right=0;bottom=0;" parent="wWix9RE-jAxu2qYLu9UM-1" vertex="1">
                    <mxGeometry y="90" width="330" height="30" as="geometry"/>
                </mxCell>
                <mxCell id="wWix9RE-jAxu2qYLu9UM-9" value="" style="shape=partialRectangle;connectable=0;fillColor=#000000;top=0;left=0;bottom=0;right=0;editable=1;overflow=hidden;whiteSpace=wrap;html=1;" parent="wWix9RE-jAxu2qYLu9UM-8" vertex="1">
                    <mxGeometry width="30" height="30" as="geometry">
                        <mxRectangle width="30" height="30" as="alternateBounds"/>
                    </mxGeometry>
                </mxCell>
                <mxCell id="wWix9RE-jAxu2qYLu9UM-10" value="doctor_description TEXT&amp;nbsp;NOT NULL" style="shape=partialRectangle;connectable=0;fillColor=#000000;top=0;left=0;bottom=0;right=0;align=left;spacingLeft=6;overflow=hidden;whiteSpace=wrap;html=1;" parent="wWix9RE-jAxu2qYLu9UM-8" vertex="1">
                    <mxGeometry x="30" width="300" height="30" as="geometry">
                        <mxRectangle width="300" height="30" as="alternateBounds"/>
                    </mxGeometry>
                </mxCell>
                <mxCell id="wWix9RE-jAxu2qYLu9UM-11" value="" style="shape=tableRow;horizontal=0;startSize=0;swimlaneHead=0;swimlaneBody=0;fillColor=none;collapsible=0;dropTarget=0;points=[[0,0.5],[1,0.5]];portConstraint=eastwest;top=0;left=0;right=0;bottom=0;" parent="wWix9RE-jAxu2qYLu9UM-1" vertex="1">
                    <mxGeometry y="120" width="330" height="30" as="geometry"/>
                </mxCell>
                <mxCell id="wWix9RE-jAxu2qYLu9UM-12" value="" style="shape=partialRectangle;connectable=0;fillColor=#000000;top=0;left=0;bottom=0;right=0;editable=1;overflow=hidden;whiteSpace=wrap;html=1;" parent="wWix9RE-jAxu2qYLu9UM-11" vertex="1">
                    <mxGeometry width="30" height="30" as="geometry">
                        <mxRectangle width="30" height="30" as="alternateBounds"/>
                    </mxGeometry>
                </mxCell>
                <mxCell id="wWix9RE-jAxu2qYLu9UM-13" value="doctor_pathimg VARCHAR(110)&amp;nbsp;NOT NULL" style="shape=partialRectangle;connectable=0;fillColor=#000000;top=0;left=0;bottom=0;right=0;align=left;spacingLeft=6;overflow=hidden;whiteSpace=wrap;html=1;" parent="wWix9RE-jAxu2qYLu9UM-11" vertex="1">
                    <mxGeometry x="30" width="300" height="30" as="geometry">
                        <mxRectangle width="300" height="30" as="alternateBounds"/>
                    </mxGeometry>
                </mxCell>
                <mxCell id="wWix9RE-jAxu2qYLu9UM-14" value="&lt;font color=&quot;#fafafa&quot;&gt;pages&lt;/font&gt;" style="shape=table;startSize=30;container=1;collapsible=1;childLayout=tableLayout;fixedRows=1;rowLines=0;fontStyle=1;align=center;resizeLast=1;html=1;fillColor=#202125;" parent="1" vertex="1">
                    <mxGeometry x="20" y="40" width="330" height="240" as="geometry"/>
                </mxCell>
                <mxCell id="wWix9RE-jAxu2qYLu9UM-15" value="" style="shape=tableRow;horizontal=0;startSize=0;swimlaneHead=0;swimlaneBody=0;fillColor=none;collapsible=0;dropTarget=0;points=[[0,0.5],[1,0.5]];portConstraint=eastwest;top=0;left=0;right=0;bottom=1;" parent="wWix9RE-jAxu2qYLu9UM-14" vertex="1">
                    <mxGeometry y="30" width="330" height="30" as="geometry"/>
                </mxCell>
                <mxCell id="wWix9RE-jAxu2qYLu9UM-16" value="PK" style="shape=partialRectangle;connectable=0;fillColor=#000000;top=0;left=0;bottom=0;right=0;fontStyle=1;overflow=hidden;whiteSpace=wrap;html=1;strokeColor=#121212;" parent="wWix9RE-jAxu2qYLu9UM-15" vertex="1">
                    <mxGeometry width="30" height="30" as="geometry">
                        <mxRectangle width="30" height="30" as="alternateBounds"/>
                    </mxGeometry>
                </mxCell>
                <mxCell id="wWix9RE-jAxu2qYLu9UM-17" value="id INT AUTO_INCREMENT NOT NULL" style="shape=partialRectangle;connectable=0;fillColor=#000000;top=0;left=0;bottom=0;right=0;align=left;spacingLeft=6;fontStyle=5;overflow=hidden;whiteSpace=wrap;html=1;strokeColor=#121212;" parent="wWix9RE-jAxu2qYLu9UM-15" vertex="1">
                    <mxGeometry x="30" width="300" height="30" as="geometry">
                        <mxRectangle width="300" height="30" as="alternateBounds"/>
                    </mxGeometry>
                </mxCell>
                <mxCell id="wWix9RE-jAxu2qYLu9UM-18" value="" style="shape=tableRow;horizontal=0;startSize=0;swimlaneHead=0;swimlaneBody=0;fillColor=none;collapsible=0;dropTarget=0;points=[[0,0.5],[1,0.5]];portConstraint=eastwest;top=0;left=0;right=0;bottom=0;" parent="wWix9RE-jAxu2qYLu9UM-14" vertex="1">
                    <mxGeometry y="60" width="330" height="30" as="geometry"/>
                </mxCell>
                <mxCell id="wWix9RE-jAxu2qYLu9UM-19" value="" style="shape=partialRectangle;connectable=0;fillColor=#000000;top=0;left=0;bottom=0;right=0;editable=1;overflow=hidden;whiteSpace=wrap;html=1;strokeColor=#121212;" parent="wWix9RE-jAxu2qYLu9UM-18" vertex="1">
                    <mxGeometry width="30" height="30" as="geometry">
                        <mxRectangle width="30" height="30" as="alternateBounds"/>
                    </mxGeometry>
                </mxCell>
                <mxCell id="wWix9RE-jAxu2qYLu9UM-20" value="page_title VARCHAR(110)&amp;nbsp;NOT NULL" style="shape=partialRectangle;connectable=0;fillColor=#000000;top=0;left=0;bottom=0;right=0;align=left;spacingLeft=6;overflow=hidden;whiteSpace=wrap;html=1;strokeColor=#121212;" parent="wWix9RE-jAxu2qYLu9UM-18" vertex="1">
                    <mxGeometry x="30" width="300" height="30" as="geometry">
                        <mxRectangle width="300" height="30" as="alternateBounds"/>
                    </mxGeometry>
                </mxCell>
                <mxCell id="wWix9RE-jAxu2qYLu9UM-21" value="" style="shape=tableRow;horizontal=0;startSize=0;swimlaneHead=0;swimlaneBody=0;fillColor=none;collapsible=0;dropTarget=0;points=[[0,0.5],[1,0.5]];portConstraint=eastwest;top=0;left=0;right=0;bottom=0;" parent="wWix9RE-jAxu2qYLu9UM-14" vertex="1">
                    <mxGeometry y="90" width="330" height="30" as="geometry"/>
                </mxCell>
                <mxCell id="wWix9RE-jAxu2qYLu9UM-22" value="" style="shape=partialRectangle;connectable=0;fillColor=#000000;top=0;left=0;bottom=0;right=0;editable=1;overflow=hidden;whiteSpace=wrap;html=1;strokeColor=#121212;" parent="wWix9RE-jAxu2qYLu9UM-21" vertex="1">
                    <mxGeometry width="30" height="30" as="geometry">
                        <mxRectangle width="30" height="30" as="alternateBounds"/>
                    </mxGeometry>
                </mxCell>
                <mxCell id="wWix9RE-jAxu2qYLu9UM-23" value="page_meta_desc TEXT" style="shape=partialRectangle;connectable=0;fillColor=#000000;top=0;left=0;bottom=0;right=0;align=left;spacingLeft=6;overflow=hidden;whiteSpace=wrap;html=1;strokeColor=#121212;" parent="wWix9RE-jAxu2qYLu9UM-21" vertex="1">
                    <mxGeometry x="30" width="300" height="30" as="geometry">
                        <mxRectangle width="300" height="30" as="alternateBounds"/>
                    </mxGeometry>
                </mxCell>
                <mxCell id="wWix9RE-jAxu2qYLu9UM-24" value="" style="shape=tableRow;horizontal=0;startSize=0;swimlaneHead=0;swimlaneBody=0;fillColor=none;collapsible=0;dropTarget=0;points=[[0,0.5],[1,0.5]];portConstraint=eastwest;top=0;left=0;right=0;bottom=0;" parent="wWix9RE-jAxu2qYLu9UM-14" vertex="1">
                    <mxGeometry y="120" width="330" height="30" as="geometry"/>
                </mxCell>
                <mxCell id="wWix9RE-jAxu2qYLu9UM-25" value="" style="shape=partialRectangle;connectable=0;fillColor=#000000;top=0;left=0;bottom=0;right=0;editable=1;overflow=hidden;whiteSpace=wrap;html=1;strokeColor=#121212;" parent="wWix9RE-jAxu2qYLu9UM-24" vertex="1">
                    <mxGeometry width="30" height="30" as="geometry">
                        <mxRectangle width="30" height="30" as="alternateBounds"/>
                    </mxGeometry>
                </mxCell>
                <mxCell id="wWix9RE-jAxu2qYLu9UM-26" value="page_meta_keywords TEXT" style="shape=partialRectangle;connectable=0;fillColor=#000000;top=0;left=0;bottom=0;right=0;align=left;spacingLeft=6;overflow=hidden;whiteSpace=wrap;html=1;strokeColor=#121212;" parent="wWix9RE-jAxu2qYLu9UM-24" vertex="1">
                    <mxGeometry x="30" width="300" height="30" as="geometry">
                        <mxRectangle width="300" height="30" as="alternateBounds"/>
                    </mxGeometry>
                </mxCell>
                <mxCell id="wWix9RE-jAxu2qYLu9UM-27" value="" style="shape=tableRow;horizontal=0;startSize=0;swimlaneHead=0;swimlaneBody=0;fillColor=none;collapsible=0;dropTarget=0;points=[[0,0.5],[1,0.5]];portConstraint=eastwest;top=0;left=0;right=0;bottom=0;" parent="wWix9RE-jAxu2qYLu9UM-14" vertex="1">
                    <mxGeometry y="150" width="330" height="30" as="geometry"/>
                </mxCell>
                <mxCell id="wWix9RE-jAxu2qYLu9UM-28" value="" style="shape=partialRectangle;connectable=0;fillColor=#000000;top=0;left=0;bottom=0;right=0;editable=1;overflow=hidden;strokeColor=#121212;" parent="wWix9RE-jAxu2qYLu9UM-27" vertex="1">
                    <mxGeometry width="30" height="30" as="geometry">
                        <mxRectangle width="30" height="30" as="alternateBounds"/>
                    </mxGeometry>
                </mxCell>
                <mxCell id="wWix9RE-jAxu2qYLu9UM-29" value="page_url VARCHAR(255) NOT NULL" style="shape=partialRectangle;connectable=0;fillColor=#000000;top=0;left=0;bottom=0;right=0;align=left;spacingLeft=6;overflow=hidden;strokeColor=#121212;" parent="wWix9RE-jAxu2qYLu9UM-27" vertex="1">
                    <mxGeometry x="30" width="300" height="30" as="geometry">
                        <mxRectangle width="300" height="30" as="alternateBounds"/>
                    </mxGeometry>
                </mxCell>
                <mxCell id="wWix9RE-jAxu2qYLu9UM-30" value="" style="shape=tableRow;horizontal=0;startSize=0;swimlaneHead=0;swimlaneBody=0;fillColor=none;collapsible=0;dropTarget=0;points=[[0,0.5],[1,0.5]];portConstraint=eastwest;top=0;left=0;right=0;bottom=0;" parent="wWix9RE-jAxu2qYLu9UM-14" vertex="1">
                    <mxGeometry y="180" width="330" height="30" as="geometry"/>
                </mxCell>
                <mxCell id="wWix9RE-jAxu2qYLu9UM-31" value="" style="shape=partialRectangle;connectable=0;fillColor=#000000;top=0;left=0;bottom=0;right=0;editable=1;overflow=hidden;strokeColor=#121212;" parent="wWix9RE-jAxu2qYLu9UM-30" vertex="1">
                    <mxGeometry width="30" height="30" as="geometry">
                        <mxRectangle width="30" height="30" as="alternateBounds"/>
                    </mxGeometry>
                </mxCell>
                <mxCell id="wWix9RE-jAxu2qYLu9UM-32" value="page_bodyId VARCHAR(110)" style="shape=partialRectangle;connectable=0;fillColor=#000000;top=0;left=0;bottom=0;right=0;align=left;spacingLeft=6;overflow=hidden;strokeColor=#121212;" parent="wWix9RE-jAxu2qYLu9UM-30" vertex="1">
                    <mxGeometry x="30" width="300" height="30" as="geometry">
                        <mxRectangle width="300" height="30" as="alternateBounds"/>
                    </mxGeometry>
                </mxCell>
                <mxCell id="wWix9RE-jAxu2qYLu9UM-33" value="" style="shape=tableRow;horizontal=0;startSize=0;swimlaneHead=0;swimlaneBody=0;fillColor=none;collapsible=0;dropTarget=0;points=[[0,0.5],[1,0.5]];portConstraint=eastwest;top=0;left=0;right=0;bottom=0;" parent="wWix9RE-jAxu2qYLu9UM-14" vertex="1">
                    <mxGeometry y="210" width="330" height="30" as="geometry"/>
                </mxCell>
                <mxCell id="wWix9RE-jAxu2qYLu9UM-34" value="FK" style="shape=partialRectangle;connectable=0;fillColor=#000000;top=0;left=0;bottom=0;right=0;fontStyle=0;overflow=hidden;whiteSpace=wrap;html=1;strokeColor=#121212;" parent="wWix9RE-jAxu2qYLu9UM-33" vertex="1">
                    <mxGeometry width="30" height="30" as="geometry">
                        <mxRectangle width="30" height="30" as="alternateBounds"/>
                    </mxGeometry>
                </mxCell>
                <mxCell id="wWix9RE-jAxu2qYLu9UM-35" value="nav_category_id INT NOT NULL" style="shape=partialRectangle;connectable=0;fillColor=#000000;top=0;left=0;bottom=0;right=0;align=left;spacingLeft=6;fontStyle=0;overflow=hidden;whiteSpace=wrap;html=1;strokeColor=#121212;" parent="wWix9RE-jAxu2qYLu9UM-33" vertex="1">
                    <mxGeometry x="30" width="300" height="30" as="geometry">
                        <mxRectangle width="300" height="30" as="alternateBounds"/>
                    </mxGeometry>
                </mxCell>
                <mxCell id="wWix9RE-jAxu2qYLu9UM-45" value="&lt;font color=&quot;#fafafa&quot;&gt;nav_category&lt;/font&gt;" style="shape=table;startSize=30;container=1;collapsible=1;childLayout=tableLayout;fixedRows=1;rowLines=0;fontStyle=1;align=center;resizeLast=1;html=1;fillColor=#202125;" parent="1" vertex="1">
                    <mxGeometry x="440" y="40" width="340" height="90" as="geometry"/>
                </mxCell>
                <mxCell id="wWix9RE-jAxu2qYLu9UM-46" value="" style="shape=tableRow;horizontal=0;startSize=0;swimlaneHead=0;swimlaneBody=0;fillColor=none;collapsible=0;dropTarget=0;points=[[0,0.5],[1,0.5]];portConstraint=eastwest;top=0;left=0;right=0;bottom=1;" parent="wWix9RE-jAxu2qYLu9UM-45" vertex="1">
                    <mxGeometry y="30" width="340" height="30" as="geometry"/>
                </mxCell>
                <mxCell id="wWix9RE-jAxu2qYLu9UM-47" value="PK" style="shape=partialRectangle;connectable=0;fillColor=#000000;top=0;left=0;bottom=0;right=0;fontStyle=1;overflow=hidden;whiteSpace=wrap;html=1;" parent="wWix9RE-jAxu2qYLu9UM-46" vertex="1">
                    <mxGeometry width="30" height="30" as="geometry">
                        <mxRectangle width="30" height="30" as="alternateBounds"/>
                    </mxGeometry>
                </mxCell>
                <mxCell id="wWix9RE-jAxu2qYLu9UM-48" value="id INT AUTO_INCREMENT NOT NULL" style="shape=partialRectangle;connectable=0;fillColor=#000000;top=0;left=0;bottom=0;right=0;align=left;spacingLeft=6;fontStyle=5;overflow=hidden;whiteSpace=wrap;html=1;" parent="wWix9RE-jAxu2qYLu9UM-46" vertex="1">
                    <mxGeometry x="30" width="310" height="30" as="geometry">
                        <mxRectangle width="310" height="30" as="alternateBounds"/>
                    </mxGeometry>
                </mxCell>
                <mxCell id="wWix9RE-jAxu2qYLu9UM-49" value="" style="shape=tableRow;horizontal=0;startSize=0;swimlaneHead=0;swimlaneBody=0;fillColor=none;collapsible=0;dropTarget=0;points=[[0,0.5],[1,0.5]];portConstraint=eastwest;top=0;left=0;right=0;bottom=0;" parent="wWix9RE-jAxu2qYLu9UM-45" vertex="1">
                    <mxGeometry y="60" width="340" height="30" as="geometry"/>
                </mxCell>
                <mxCell id="wWix9RE-jAxu2qYLu9UM-50" value="" style="shape=partialRectangle;connectable=0;fillColor=#000000;top=0;left=0;bottom=0;right=0;editable=1;overflow=hidden;whiteSpace=wrap;html=1;" parent="wWix9RE-jAxu2qYLu9UM-49" vertex="1">
                    <mxGeometry width="30" height="30" as="geometry">
                        <mxRectangle width="30" height="30" as="alternateBounds"/>
                    </mxGeometry>
                </mxCell>
                <mxCell id="wWix9RE-jAxu2qYLu9UM-51" value="nav_name VARCHAR(100)&amp;nbsp;NOT NULL" style="shape=partialRectangle;connectable=0;fillColor=#000000;top=0;left=0;bottom=0;right=0;align=left;spacingLeft=6;overflow=hidden;whiteSpace=wrap;html=1;" parent="wWix9RE-jAxu2qYLu9UM-49" vertex="1">
                    <mxGeometry x="30" width="310" height="30" as="geometry">
                        <mxRectangle width="310" height="30" as="alternateBounds"/>
                    </mxGeometry>
                </mxCell>
                <mxCell id="wWix9RE-jAxu2qYLu9UM-72" value="&lt;font color=&quot;#e3e3e3&quot;&gt;sections&lt;/font&gt;" style="shape=table;startSize=30;container=1;collapsible=1;childLayout=tableLayout;fixedRows=1;rowLines=0;fontStyle=1;align=center;resizeLast=1;html=1;fillColor=#202125;" parent="1" vertex="1">
                    <mxGeometry x="20" y="320" width="330" height="150" as="geometry"/>
                </mxCell>
                <mxCell id="wWix9RE-jAxu2qYLu9UM-73" value="" style="shape=tableRow;horizontal=0;startSize=0;swimlaneHead=0;swimlaneBody=0;fillColor=#FAFAFA;collapsible=0;dropTarget=0;points=[[0,0.5],[1,0.5]];portConstraint=eastwest;top=0;left=0;right=0;bottom=1;" parent="wWix9RE-jAxu2qYLu9UM-72" vertex="1">
                    <mxGeometry y="30" width="330" height="30" as="geometry"/>
                </mxCell>
                <mxCell id="wWix9RE-jAxu2qYLu9UM-74" value="PK" style="shape=partialRectangle;connectable=0;fillColor=#000000;top=0;left=0;bottom=0;right=0;fontStyle=1;overflow=hidden;whiteSpace=wrap;html=1;" parent="wWix9RE-jAxu2qYLu9UM-73" vertex="1">
                    <mxGeometry width="30" height="30" as="geometry">
                        <mxRectangle width="30" height="30" as="alternateBounds"/>
                    </mxGeometry>
                </mxCell>
                <mxCell id="wWix9RE-jAxu2qYLu9UM-75" value="id INT AUTO_INCREMENT NOT NULL" style="shape=partialRectangle;connectable=0;fillColor=#000000;top=0;left=0;bottom=0;right=0;align=left;spacingLeft=6;fontStyle=5;overflow=hidden;whiteSpace=wrap;html=1;" parent="wWix9RE-jAxu2qYLu9UM-73" vertex="1">
                    <mxGeometry x="30" width="300" height="30" as="geometry">
                        <mxRectangle width="300" height="30" as="alternateBounds"/>
                    </mxGeometry>
                </mxCell>
                <mxCell id="wWix9RE-jAxu2qYLu9UM-76" value="" style="shape=tableRow;horizontal=0;startSize=0;swimlaneHead=0;swimlaneBody=0;fillColor=#FAFAFA;collapsible=0;dropTarget=0;points=[[0,0.5],[1,0.5]];portConstraint=eastwest;top=0;left=0;right=0;bottom=0;" parent="wWix9RE-jAxu2qYLu9UM-72" vertex="1">
                    <mxGeometry y="60" width="330" height="30" as="geometry"/>
                </mxCell>
                <mxCell id="wWix9RE-jAxu2qYLu9UM-77" value="" style="shape=partialRectangle;connectable=0;fillColor=#000000;top=0;left=0;bottom=0;right=0;editable=1;overflow=hidden;whiteSpace=wrap;html=1;" parent="wWix9RE-jAxu2qYLu9UM-76" vertex="1">
                    <mxGeometry width="30" height="30" as="geometry">
                        <mxRectangle width="30" height="30" as="alternateBounds"/>
                    </mxGeometry>
                </mxCell>
                <mxCell id="wWix9RE-jAxu2qYLu9UM-78" value="section_title VARCHAR(110)" style="shape=partialRectangle;connectable=0;fillColor=#000000;top=0;left=0;bottom=0;right=0;align=left;spacingLeft=6;overflow=hidden;whiteSpace=wrap;html=1;" parent="wWix9RE-jAxu2qYLu9UM-76" vertex="1">
                    <mxGeometry x="30" width="300" height="30" as="geometry">
                        <mxRectangle width="300" height="30" as="alternateBounds"/>
                    </mxGeometry>
                </mxCell>
                <mxCell id="wWix9RE-jAxu2qYLu9UM-79" value="" style="shape=tableRow;horizontal=0;startSize=0;swimlaneHead=0;swimlaneBody=0;fillColor=#FAFAFA;collapsible=0;dropTarget=0;points=[[0,0.5],[1,0.5]];portConstraint=eastwest;top=0;left=0;right=0;bottom=0;" parent="wWix9RE-jAxu2qYLu9UM-72" vertex="1">
                    <mxGeometry y="90" width="330" height="30" as="geometry"/>
                </mxCell>
                <mxCell id="wWix9RE-jAxu2qYLu9UM-80" value="" style="shape=partialRectangle;connectable=0;fillColor=#000000;top=0;left=0;bottom=0;right=0;editable=1;overflow=hidden;whiteSpace=wrap;html=1;" parent="wWix9RE-jAxu2qYLu9UM-79" vertex="1">
                    <mxGeometry width="30" height="30" as="geometry">
                        <mxRectangle width="30" height="30" as="alternateBounds"/>
                    </mxGeometry>
                </mxCell>
                <mxCell id="wWix9RE-jAxu2qYLu9UM-81" value="section_description TEXT&amp;nbsp;NOT NULL" style="shape=partialRectangle;connectable=0;fillColor=#000000;top=0;left=0;bottom=0;right=0;align=left;spacingLeft=6;overflow=hidden;whiteSpace=wrap;html=1;" parent="wWix9RE-jAxu2qYLu9UM-79" vertex="1">
                    <mxGeometry x="30" width="300" height="30" as="geometry">
                        <mxRectangle width="300" height="30" as="alternateBounds"/>
                    </mxGeometry>
                </mxCell>
                <mxCell id="wWix9RE-jAxu2qYLu9UM-119" value="" style="shape=tableRow;horizontal=0;startSize=0;swimlaneHead=0;swimlaneBody=0;fillColor=#FAFAFA;collapsible=0;dropTarget=0;points=[[0,0.5],[1,0.5]];portConstraint=eastwest;top=0;left=0;right=0;bottom=0;" parent="wWix9RE-jAxu2qYLu9UM-72" vertex="1">
                    <mxGeometry y="120" width="330" height="30" as="geometry"/>
                </mxCell>
                <mxCell id="wWix9RE-jAxu2qYLu9UM-120" value="FK" style="shape=partialRectangle;connectable=0;fillColor=#000000;top=0;left=0;bottom=0;right=0;fontStyle=0;overflow=hidden;whiteSpace=wrap;html=1;" parent="wWix9RE-jAxu2qYLu9UM-119" vertex="1">
                    <mxGeometry width="30" height="30" as="geometry">
                        <mxRectangle width="30" height="30" as="alternateBounds"/>
                    </mxGeometry>
                </mxCell>
                <mxCell id="wWix9RE-jAxu2qYLu9UM-121" value="section_category_id INT NOT NULL" style="shape=partialRectangle;connectable=0;fillColor=#000000;top=0;left=0;bottom=0;right=0;align=left;spacingLeft=6;fontStyle=0;overflow=hidden;whiteSpace=wrap;html=1;" parent="wWix9RE-jAxu2qYLu9UM-119" vertex="1">
                    <mxGeometry x="30" width="300" height="30" as="geometry">
                        <mxRectangle width="300" height="30" as="alternateBounds"/>
                    </mxGeometry>
                </mxCell>
                <mxCell id="wWix9RE-jAxu2qYLu9UM-85" value="&lt;font color=&quot;#fafafa&quot;&gt;products&lt;/font&gt;" style="shape=table;startSize=30;container=1;collapsible=1;childLayout=tableLayout;fixedRows=1;rowLines=0;fontStyle=1;align=center;resizeLast=1;html=1;fillColor=#202125;" parent="1" vertex="1">
                    <mxGeometry x="440" y="160" width="340" height="210" as="geometry"/>
                </mxCell>
                <mxCell id="wWix9RE-jAxu2qYLu9UM-86" value="" style="shape=tableRow;horizontal=0;startSize=0;swimlaneHead=0;swimlaneBody=0;fillColor=none;collapsible=0;dropTarget=0;points=[[0,0.5],[1,0.5]];portConstraint=eastwest;top=0;left=0;right=0;bottom=1;" parent="wWix9RE-jAxu2qYLu9UM-85" vertex="1">
                    <mxGeometry y="30" width="340" height="30" as="geometry"/>
                </mxCell>
                <mxCell id="wWix9RE-jAxu2qYLu9UM-87" value="PK" style="shape=partialRectangle;connectable=0;fillColor=#000000;top=0;left=0;bottom=0;right=0;fontStyle=1;overflow=hidden;whiteSpace=wrap;html=1;" parent="wWix9RE-jAxu2qYLu9UM-86" vertex="1">
                    <mxGeometry width="30" height="30" as="geometry">
                        <mxRectangle width="30" height="30" as="alternateBounds"/>
                    </mxGeometry>
                </mxCell>
                <mxCell id="wWix9RE-jAxu2qYLu9UM-88" value="id INT AUTO_INCREMENT NOT NULL" style="shape=partialRectangle;connectable=0;fillColor=#000000;top=0;left=0;bottom=0;right=0;align=left;spacingLeft=6;fontStyle=5;overflow=hidden;whiteSpace=wrap;html=1;" parent="wWix9RE-jAxu2qYLu9UM-86" vertex="1">
                    <mxGeometry x="30" width="310" height="30" as="geometry">
                        <mxRectangle width="310" height="30" as="alternateBounds"/>
                    </mxGeometry>
                </mxCell>
                <mxCell id="wWix9RE-jAxu2qYLu9UM-89" value="" style="shape=tableRow;horizontal=0;startSize=0;swimlaneHead=0;swimlaneBody=0;fillColor=none;collapsible=0;dropTarget=0;points=[[0,0.5],[1,0.5]];portConstraint=eastwest;top=0;left=0;right=0;bottom=0;" parent="wWix9RE-jAxu2qYLu9UM-85" vertex="1">
                    <mxGeometry y="60" width="340" height="30" as="geometry"/>
                </mxCell>
                <mxCell id="wWix9RE-jAxu2qYLu9UM-90" value="" style="shape=partialRectangle;connectable=0;fillColor=#000000;top=0;left=0;bottom=0;right=0;editable=1;overflow=hidden;whiteSpace=wrap;html=1;" parent="wWix9RE-jAxu2qYLu9UM-89" vertex="1">
                    <mxGeometry width="30" height="30" as="geometry">
                        <mxRectangle width="30" height="30" as="alternateBounds"/>
                    </mxGeometry>
                </mxCell>
                <mxCell id="wWix9RE-jAxu2qYLu9UM-91" value="product_title VARCHAR(110)&amp;nbsp;NOT NULL" style="shape=partialRectangle;connectable=0;fillColor=#000000;top=0;left=0;bottom=0;right=0;align=left;spacingLeft=6;overflow=hidden;whiteSpace=wrap;html=1;" parent="wWix9RE-jAxu2qYLu9UM-89" vertex="1">
                    <mxGeometry x="30" width="310" height="30" as="geometry">
                        <mxRectangle width="310" height="30" as="alternateBounds"/>
                    </mxGeometry>
                </mxCell>
                <mxCell id="wWix9RE-jAxu2qYLu9UM-92" value="" style="shape=tableRow;horizontal=0;startSize=0;swimlaneHead=0;swimlaneBody=0;fillColor=none;collapsible=0;dropTarget=0;points=[[0,0.5],[1,0.5]];portConstraint=eastwest;top=0;left=0;right=0;bottom=0;" parent="wWix9RE-jAxu2qYLu9UM-85" vertex="1">
                    <mxGeometry y="90" width="340" height="30" as="geometry"/>
                </mxCell>
                <mxCell id="wWix9RE-jAxu2qYLu9UM-93" value="" style="shape=partialRectangle;connectable=0;fillColor=#000000;top=0;left=0;bottom=0;right=0;editable=1;overflow=hidden;whiteSpace=wrap;html=1;" parent="wWix9RE-jAxu2qYLu9UM-92" vertex="1">
                    <mxGeometry width="30" height="30" as="geometry">
                        <mxRectangle width="30" height="30" as="alternateBounds"/>
                    </mxGeometry>
                </mxCell>
                <mxCell id="wWix9RE-jAxu2qYLu9UM-94" value="product_description TEXT&amp;nbsp;NOT NULL" style="shape=partialRectangle;connectable=0;fillColor=#000000;top=0;left=0;bottom=0;right=0;align=left;spacingLeft=6;overflow=hidden;whiteSpace=wrap;html=1;" parent="wWix9RE-jAxu2qYLu9UM-92" vertex="1">
                    <mxGeometry x="30" width="310" height="30" as="geometry">
                        <mxRectangle width="310" height="30" as="alternateBounds"/>
                    </mxGeometry>
                </mxCell>
                <mxCell id="wWix9RE-jAxu2qYLu9UM-126" value="" style="shape=tableRow;horizontal=0;startSize=0;swimlaneHead=0;swimlaneBody=0;fillColor=none;collapsible=0;dropTarget=0;points=[[0,0.5],[1,0.5]];portConstraint=eastwest;top=0;left=0;right=0;bottom=0;" parent="wWix9RE-jAxu2qYLu9UM-85" vertex="1">
                    <mxGeometry y="120" width="340" height="30" as="geometry"/>
                </mxCell>
                <mxCell id="wWix9RE-jAxu2qYLu9UM-127" value="" style="shape=partialRectangle;connectable=0;fillColor=#000000;top=0;left=0;bottom=0;right=0;editable=1;overflow=hidden;" parent="wWix9RE-jAxu2qYLu9UM-126" vertex="1">
                    <mxGeometry width="30" height="30" as="geometry">
                        <mxRectangle width="30" height="30" as="alternateBounds"/>
                    </mxGeometry>
                </mxCell>
                <mxCell id="wWix9RE-jAxu2qYLu9UM-128" value="product_price FLOAT NOT NULL" style="shape=partialRectangle;connectable=0;fillColor=#000000;top=0;left=0;bottom=0;right=0;align=left;spacingLeft=6;overflow=hidden;" parent="wWix9RE-jAxu2qYLu9UM-126" vertex="1">
                    <mxGeometry x="30" width="310" height="30" as="geometry">
                        <mxRectangle width="310" height="30" as="alternateBounds"/>
                    </mxGeometry>
                </mxCell>
                <mxCell id="wWix9RE-jAxu2qYLu9UM-95" value="" style="shape=tableRow;horizontal=0;startSize=0;swimlaneHead=0;swimlaneBody=0;fillColor=none;collapsible=0;dropTarget=0;points=[[0,0.5],[1,0.5]];portConstraint=eastwest;top=0;left=0;right=0;bottom=0;" parent="wWix9RE-jAxu2qYLu9UM-85" vertex="1">
                    <mxGeometry y="150" width="340" height="30" as="geometry"/>
                </mxCell>
                <mxCell id="wWix9RE-jAxu2qYLu9UM-96" value="" style="shape=partialRectangle;connectable=0;fillColor=#000000;top=0;left=0;bottom=0;right=0;editable=1;overflow=hidden;whiteSpace=wrap;html=1;" parent="wWix9RE-jAxu2qYLu9UM-95" vertex="1">
                    <mxGeometry width="30" height="30" as="geometry">
                        <mxRectangle width="30" height="30" as="alternateBounds"/>
                    </mxGeometry>
                </mxCell>
                <mxCell id="wWix9RE-jAxu2qYLu9UM-97" value="product_pathimg&amp;nbsp;VARCHAR(110)&amp;nbsp;NOT NULL" style="shape=partialRectangle;connectable=0;fillColor=#000000;top=0;left=0;bottom=0;right=0;align=left;spacingLeft=6;overflow=hidden;whiteSpace=wrap;html=1;" parent="wWix9RE-jAxu2qYLu9UM-95" vertex="1">
                    <mxGeometry x="30" width="310" height="30" as="geometry">
                        <mxRectangle width="310" height="30" as="alternateBounds"/>
                    </mxGeometry>
                </mxCell>
                <mxCell id="wWix9RE-jAxu2qYLu9UM-107" value="" style="shape=tableRow;horizontal=0;startSize=0;swimlaneHead=0;swimlaneBody=0;fillColor=none;collapsible=0;dropTarget=0;points=[[0,0.5],[1,0.5]];portConstraint=eastwest;top=0;left=0;right=0;bottom=0;" parent="wWix9RE-jAxu2qYLu9UM-85" vertex="1">
                    <mxGeometry y="180" width="340" height="30" as="geometry"/>
                </mxCell>
                <mxCell id="wWix9RE-jAxu2qYLu9UM-108" value="FK" style="shape=partialRectangle;connectable=0;fillColor=#000000;top=0;left=0;bottom=0;right=0;fontStyle=0;overflow=hidden;whiteSpace=wrap;html=1;" parent="wWix9RE-jAxu2qYLu9UM-107" vertex="1">
                    <mxGeometry width="30" height="30" as="geometry">
                        <mxRectangle width="30" height="30" as="alternateBounds"/>
                    </mxGeometry>
                </mxCell>
                <mxCell id="wWix9RE-jAxu2qYLu9UM-109" value="product_category_id INT NOT NULL" style="shape=partialRectangle;connectable=0;fillColor=#000000;top=0;left=0;bottom=0;right=0;align=left;spacingLeft=6;fontStyle=0;overflow=hidden;whiteSpace=wrap;html=1;" parent="wWix9RE-jAxu2qYLu9UM-107" vertex="1">
                    <mxGeometry x="30" width="310" height="30" as="geometry">
                        <mxRectangle width="310" height="30" as="alternateBounds"/>
                    </mxGeometry>
                </mxCell>
                <mxCell id="wWix9RE-jAxu2qYLu9UM-98" value="&lt;font color=&quot;#fafafa&quot;&gt;product_category&lt;/font&gt;" style="shape=table;startSize=30;container=1;collapsible=1;childLayout=tableLayout;fixedRows=1;rowLines=0;fontStyle=1;align=center;resizeLast=1;html=1;fillColor=#202125;" parent="1" vertex="1">
                    <mxGeometry x="870" y="310" width="330" height="90" as="geometry"/>
                </mxCell>
                <mxCell id="wWix9RE-jAxu2qYLu9UM-99" value="" style="shape=tableRow;horizontal=0;startSize=0;swimlaneHead=0;swimlaneBody=0;fillColor=none;collapsible=0;dropTarget=0;points=[[0,0.5],[1,0.5]];portConstraint=eastwest;top=0;left=0;right=0;bottom=1;" parent="wWix9RE-jAxu2qYLu9UM-98" vertex="1">
                    <mxGeometry y="30" width="330" height="30" as="geometry"/>
                </mxCell>
                <mxCell id="wWix9RE-jAxu2qYLu9UM-100" value="PK" style="shape=partialRectangle;connectable=0;fillColor=#000000;top=0;left=0;bottom=0;right=0;fontStyle=1;overflow=hidden;whiteSpace=wrap;html=1;" parent="wWix9RE-jAxu2qYLu9UM-99" vertex="1">
                    <mxGeometry width="30" height="30" as="geometry">
                        <mxRectangle width="30" height="30" as="alternateBounds"/>
                    </mxGeometry>
                </mxCell>
                <mxCell id="wWix9RE-jAxu2qYLu9UM-101" value="id INT AUTO_INCREMENT NOT NULL" style="shape=partialRectangle;connectable=0;fillColor=#000000;top=0;left=0;bottom=0;right=0;align=left;spacingLeft=6;fontStyle=5;overflow=hidden;whiteSpace=wrap;html=1;" parent="wWix9RE-jAxu2qYLu9UM-99" vertex="1">
                    <mxGeometry x="30" width="300" height="30" as="geometry">
                        <mxRectangle width="300" height="30" as="alternateBounds"/>
                    </mxGeometry>
                </mxCell>
                <mxCell id="wWix9RE-jAxu2qYLu9UM-102" value="" style="shape=tableRow;horizontal=0;startSize=0;swimlaneHead=0;swimlaneBody=0;fillColor=none;collapsible=0;dropTarget=0;points=[[0,0.5],[1,0.5]];portConstraint=eastwest;top=0;left=0;right=0;bottom=0;" parent="wWix9RE-jAxu2qYLu9UM-98" vertex="1">
                    <mxGeometry y="60" width="330" height="30" as="geometry"/>
                </mxCell>
                <mxCell id="wWix9RE-jAxu2qYLu9UM-103" value="" style="shape=partialRectangle;connectable=0;fillColor=#000000;top=0;left=0;bottom=0;right=0;editable=1;overflow=hidden;whiteSpace=wrap;html=1;" parent="wWix9RE-jAxu2qYLu9UM-102" vertex="1">
                    <mxGeometry width="30" height="30" as="geometry">
                        <mxRectangle width="30" height="30" as="alternateBounds"/>
                    </mxGeometry>
                </mxCell>
                <mxCell id="wWix9RE-jAxu2qYLu9UM-104" value="category_name VARCHAR(110)&amp;nbsp;NOT NULL" style="shape=partialRectangle;connectable=0;fillColor=#000000;top=0;left=0;bottom=0;right=0;align=left;spacingLeft=6;overflow=hidden;whiteSpace=wrap;html=1;" parent="wWix9RE-jAxu2qYLu9UM-102" vertex="1">
                    <mxGeometry x="30" width="300" height="30" as="geometry">
                        <mxRectangle width="300" height="30" as="alternateBounds"/>
                    </mxGeometry>
                </mxCell>
                <mxCell id="wWix9RE-jAxu2qYLu9UM-112" value="&lt;font color=&quot;#fafafa&quot;&gt;section_category&lt;/font&gt;" style="shape=table;startSize=30;container=1;collapsible=1;childLayout=tableLayout;fixedRows=1;rowLines=0;fontStyle=1;align=center;resizeLast=1;html=1;fillColor=#202125;" parent="1" vertex="1">
                    <mxGeometry x="440" y="410" width="336" height="90" as="geometry"/>
                </mxCell>
                <mxCell id="wWix9RE-jAxu2qYLu9UM-113" value="" style="shape=tableRow;horizontal=0;startSize=0;swimlaneHead=0;swimlaneBody=0;fillColor=none;collapsible=0;dropTarget=0;points=[[0,0.5],[1,0.5]];portConstraint=eastwest;top=0;left=0;right=0;bottom=1;" parent="wWix9RE-jAxu2qYLu9UM-112" vertex="1">
                    <mxGeometry y="30" width="336" height="30" as="geometry"/>
                </mxCell>
                <mxCell id="wWix9RE-jAxu2qYLu9UM-114" value="PK" style="shape=partialRectangle;connectable=0;fillColor=#000000;top=0;left=0;bottom=0;right=0;fontStyle=1;overflow=hidden;whiteSpace=wrap;html=1;" parent="wWix9RE-jAxu2qYLu9UM-113" vertex="1">
                    <mxGeometry width="30" height="30" as="geometry">
                        <mxRectangle width="30" height="30" as="alternateBounds"/>
                    </mxGeometry>
                </mxCell>
                <mxCell id="wWix9RE-jAxu2qYLu9UM-115" value="id INT AUTO_INCREMENT NOT NULL" style="shape=partialRectangle;connectable=0;fillColor=#000000;top=0;left=0;bottom=0;right=0;align=left;spacingLeft=6;fontStyle=5;overflow=hidden;whiteSpace=wrap;html=1;" parent="wWix9RE-jAxu2qYLu9UM-113" vertex="1">
                    <mxGeometry x="30" width="306" height="30" as="geometry">
                        <mxRectangle width="306" height="30" as="alternateBounds"/>
                    </mxGeometry>
                </mxCell>
                <mxCell id="wWix9RE-jAxu2qYLu9UM-116" value="" style="shape=tableRow;horizontal=0;startSize=0;swimlaneHead=0;swimlaneBody=0;fillColor=none;collapsible=0;dropTarget=0;points=[[0,0.5],[1,0.5]];portConstraint=eastwest;top=0;left=0;right=0;bottom=0;" parent="wWix9RE-jAxu2qYLu9UM-112" vertex="1">
                    <mxGeometry y="60" width="336" height="30" as="geometry"/>
                </mxCell>
                <mxCell id="wWix9RE-jAxu2qYLu9UM-117" value="" style="shape=partialRectangle;connectable=0;fillColor=#000000;top=0;left=0;bottom=0;right=0;editable=1;overflow=hidden;whiteSpace=wrap;html=1;" parent="wWix9RE-jAxu2qYLu9UM-116" vertex="1">
                    <mxGeometry width="30" height="30" as="geometry">
                        <mxRectangle width="30" height="30" as="alternateBounds"/>
                    </mxGeometry>
                </mxCell>
                <mxCell id="wWix9RE-jAxu2qYLu9UM-118" value="section_category_name&amp;nbsp;VARCHAR(100)&amp;nbsp;NOT NULL" style="shape=partialRectangle;connectable=0;fillColor=#000000;top=0;left=0;bottom=0;right=0;align=left;spacingLeft=6;overflow=hidden;whiteSpace=wrap;html=1;" parent="wWix9RE-jAxu2qYLu9UM-116" vertex="1">
                    <mxGeometry x="30" width="306" height="30" as="geometry">
                        <mxRectangle width="306" height="30" as="alternateBounds"/>
                    </mxGeometry>
                </mxCell>
                <mxCell id="wWix9RE-jAxu2qYLu9UM-123" value="" style="shape=tableRow;horizontal=0;startSize=0;swimlaneHead=0;swimlaneBody=0;fillColor=none;collapsible=0;dropTarget=0;points=[[0,0.5],[1,0.5]];portConstraint=eastwest;top=0;left=0;right=0;bottom=0;" parent="1" vertex="1">
                    <mxGeometry x="110" y="420" width="330" height="30" as="geometry"/>
                </mxCell>
                <mxCell id="i4VHNRrbwEkDNsKiGC7b-4" value="" style="edgeStyle=entityRelationEdgeStyle;fontSize=12;html=1;endArrow=ERoneToMany;rounded=0;entryX=1;entryY=0.5;entryDx=0;entryDy=0;" parent="1" source="wWix9RE-jAxu2qYLu9UM-46" target="wWix9RE-jAxu2qYLu9UM-33" edge="1">
                    <mxGeometry width="100" height="100" relative="1" as="geometry">
                        <mxPoint x="230" y="730" as="sourcePoint"/>
                        <mxPoint x="330" y="630" as="targetPoint"/>
                    </mxGeometry>
                </mxCell>
                <mxCell id="i4VHNRrbwEkDNsKiGC7b-5" value="" style="edgeStyle=entityRelationEdgeStyle;fontSize=12;html=1;endArrow=ERoneToMany;rounded=0;exitX=1;exitY=0.5;exitDx=0;exitDy=0;" parent="1" source="wWix9RE-jAxu2qYLu9UM-119" target="wWix9RE-jAxu2qYLu9UM-113" edge="1">
                    <mxGeometry width="100" height="100" relative="1" as="geometry">
                        <mxPoint x="350" y="700" as="sourcePoint"/>
                        <mxPoint x="450" y="600" as="targetPoint"/>
                    </mxGeometry>
                </mxCell>
                <mxCell id="i4VHNRrbwEkDNsKiGC7b-6" value="" style="edgeStyle=entityRelationEdgeStyle;fontSize=12;html=1;endArrow=ERoneToMany;rounded=0;exitX=1;exitY=0.5;exitDx=0;exitDy=0;" parent="1" source="wWix9RE-jAxu2qYLu9UM-107" target="wWix9RE-jAxu2qYLu9UM-99" edge="1">
                    <mxGeometry width="100" height="100" relative="1" as="geometry">
                        <mxPoint x="840" y="670" as="sourcePoint"/>
                        <mxPoint x="940" y="570" as="targetPoint"/>
                    </mxGeometry>
                </mxCell>
            </root>
        </mxGraphModel>
    </diagram>
</mxfile>